ISO-10303-21;
HEADER;
/* Generated by software containing ST-Developer
 * from STEP Tools, Inc. (www.steptools.com) 
 */

FILE_DESCRIPTION(
/* description */ (''),
/* implementation_level */ '2;1');

FILE_NAME(
/* name */ 'noha.step',
/* time_stamp */ '2026-05-14T07:37:54+02:00',
/* author */ (''),
/* organization */ (''),
/* preprocessor_version */ 'ST-DEVELOPER v20.1',
/* originating_system */ 'Autodesk Translation Framework v15.8.0.0',
/* authorisation */ '');

FILE_SCHEMA (('AUTOMOTIVE_DESIGN { 1 0 10303 214 3 1 1 }'));
ENDSEC;

DATA;
#10=MECHANICAL_DESIGN_GEOMETRIC_PRESENTATION_REPRESENTATION('',(#13),#393);
#11=SHAPE_REPRESENTATION_RELATIONSHIP('SRR','None',#400,#12);
#12=ADVANCED_BREP_SHAPE_REPRESENTATION('',(#14),#392);
#13=STYLED_ITEM('',(#409),#14);
#14=MANIFOLD_SOLID_BREP('Body1',#237);
#15=FACE_BOUND('',#48,.T.);
#16=FACE_BOUND('',#49,.T.);
#17=FACE_BOUND('',#51,.T.);
#18=FACE_BOUND('',#52,.T.);
#19=CIRCLE('',#257,0.999999999999995);
#20=CIRCLE('',#258,0.999999999999995);
#21=CIRCLE('',#260,1.);
#22=CIRCLE('',#261,1.);
#23=CYLINDRICAL_SURFACE('',#256,0.999999999999995);
#24=CYLINDRICAL_SURFACE('',#259,1.);
#25=FACE_OUTER_BOUND('',#37,.T.);
#26=FACE_OUTER_BOUND('',#38,.T.);
#27=FACE_OUTER_BOUND('',#39,.T.);
#28=FACE_OUTER_BOUND('',#40,.T.);
#29=FACE_OUTER_BOUND('',#41,.T.);
#30=FACE_OUTER_BOUND('',#42,.T.);
#31=FACE_OUTER_BOUND('',#43,.T.);
#32=FACE_OUTER_BOUND('',#44,.T.);
#33=FACE_OUTER_BOUND('',#45,.T.);
#34=FACE_OUTER_BOUND('',#46,.T.);
#35=FACE_OUTER_BOUND('',#47,.T.);
#36=FACE_OUTER_BOUND('',#50,.T.);
#37=EDGE_LOOP('',(#155,#156,#157,#158));
#38=EDGE_LOOP('',(#159,#160,#161,#162));
#39=EDGE_LOOP('',(#163,#164,#165,#166));
#40=EDGE_LOOP('',(#167,#168,#169,#170));
#41=EDGE_LOOP('',(#171,#172,#173,#174));
#42=EDGE_LOOP('',(#175,#176,#177,#178));
#43=EDGE_LOOP('',(#179,#180,#181,#182));
#44=EDGE_LOOP('',(#183,#184,#185,#186));
#45=EDGE_LOOP('',(#187,#188,#189,#190,#191,#192,#193,#194));
#46=EDGE_LOOP('',(#195,#196,#197,#198,#199,#200,#201,#202));
#47=EDGE_LOOP('',(#203,#204,#205,#206));
#48=EDGE_LOOP('',(#207));
#49=EDGE_LOOP('',(#208));
#50=EDGE_LOOP('',(#209,#210,#211,#212));
#51=EDGE_LOOP('',(#213));
#52=EDGE_LOOP('',(#214));
#53=LINE('',#331,#79);
#54=LINE('',#333,#80);
#55=LINE('',#335,#81);
#56=LINE('',#336,#82);
#57=LINE('',#340,#83);
#58=LINE('',#342,#84);
#59=LINE('',#344,#85);
#60=LINE('',#345,#86);
#61=LINE('',#348,#87);
#62=LINE('',#350,#88);
#63=LINE('',#351,#89);
#64=LINE('',#353,#90);
#65=LINE('',#354,#91);
#66=LINE('',#358,#92);
#67=LINE('',#359,#93);
#68=LINE('',#360,#94);
#69=LINE('',#365,#95);
#70=LINE('',#371,#96);
#71=LINE('',#376,#97);
#72=LINE('',#378,#98);
#73=LINE('',#380,#99);
#74=LINE('',#381,#100);
#75=LINE('',#383,#101);
#76=LINE('',#384,#102);
#77=LINE('',#386,#103);
#78=LINE('',#387,#104);
#79=VECTOR('',#271,10.);
#80=VECTOR('',#272,10.);
#81=VECTOR('',#273,10.);
#82=VECTOR('',#274,10.);
#83=VECTOR('',#277,10.);
#84=VECTOR('',#278,10.);
#85=VECTOR('',#279,10.);
#86=VECTOR('',#280,10.);
#87=VECTOR('',#283,10.);
#88=VECTOR('',#284,10.);
#89=VECTOR('',#285,10.);
#90=VECTOR('',#288,10.);
#91=VECTOR('',#289,10.);
#92=VECTOR('',#292,10.);
#93=VECTOR('',#293,10.);
#94=VECTOR('',#294,10.);
#95=VECTOR('',#299,0.999999999999995);
#96=VECTOR('',#306,1.);
#97=VECTOR('',#311,10.);
#98=VECTOR('',#312,10.);
#99=VECTOR('',#313,10.);
#100=VECTOR('',#314,10.);
#101=VECTOR('',#317,10.);
#102=VECTOR('',#318,10.);
#103=VECTOR('',#321,10.);
#104=VECTOR('',#322,10.);
#105=VERTEX_POINT('',#329);
#106=VERTEX_POINT('',#330);
#107=VERTEX_POINT('',#332);
#108=VERTEX_POINT('',#334);
#109=VERTEX_POINT('',#338);
#110=VERTEX_POINT('',#339);
#111=VERTEX_POINT('',#341);
#112=VERTEX_POINT('',#343);
#113=VERTEX_POINT('',#347);
#114=VERTEX_POINT('',#349);
#115=VERTEX_POINT('',#356);
#116=VERTEX_POINT('',#357);
#117=VERTEX_POINT('',#362);
#118=VERTEX_POINT('',#364);
#119=VERTEX_POINT('',#368);
#120=VERTEX_POINT('',#370);
#121=VERTEX_POINT('',#374);
#122=VERTEX_POINT('',#375);
#123=VERTEX_POINT('',#377);
#124=VERTEX_POINT('',#379);
#125=EDGE_CURVE('',#105,#106,#53,.T.);
#126=EDGE_CURVE('',#106,#107,#54,.T.);
#127=EDGE_CURVE('',#107,#108,#55,.T.);
#128=EDGE_CURVE('',#108,#105,#56,.T.);
#129=EDGE_CURVE('',#109,#110,#57,.T.);
#130=EDGE_CURVE('',#109,#111,#58,.T.);
#131=EDGE_CURVE('',#112,#111,#59,.T.);
#132=EDGE_CURVE('',#110,#112,#60,.T.);
#133=EDGE_CURVE('',#107,#113,#61,.T.);
#134=EDGE_CURVE('',#114,#113,#62,.T.);
#135=EDGE_CURVE('',#108,#114,#63,.T.);
#136=EDGE_CURVE('',#113,#112,#64,.T.);
#137=EDGE_CURVE('',#111,#114,#65,.T.);
#138=EDGE_CURVE('',#115,#116,#66,.T.);
#139=EDGE_CURVE('',#115,#109,#67,.T.);
#140=EDGE_CURVE('',#110,#116,#68,.T.);
#141=EDGE_CURVE('',#117,#117,#19,.T.);
#142=EDGE_CURVE('',#117,#118,#69,.T.);
#143=EDGE_CURVE('',#118,#118,#20,.T.);
#144=EDGE_CURVE('',#119,#119,#21,.T.);
#145=EDGE_CURVE('',#119,#120,#70,.T.);
#146=EDGE_CURVE('',#120,#120,#22,.T.);
#147=EDGE_CURVE('',#121,#122,#71,.F.);
#148=EDGE_CURVE('',#122,#123,#72,.T.);
#149=EDGE_CURVE('',#124,#123,#73,.F.);
#150=EDGE_CURVE('',#121,#124,#74,.F.);
#151=EDGE_CURVE('',#106,#121,#75,.T.);
#152=EDGE_CURVE('',#116,#124,#76,.T.);
#153=EDGE_CURVE('',#122,#105,#77,.T.);
#154=EDGE_CURVE('',#123,#115,#78,.T.);
#155=ORIENTED_EDGE('',*,*,#125,.T.);
#156=ORIENTED_EDGE('',*,*,#126,.T.);
#157=ORIENTED_EDGE('',*,*,#127,.T.);
#158=ORIENTED_EDGE('',*,*,#128,.T.);
#159=ORIENTED_EDGE('',*,*,#129,.F.);
#160=ORIENTED_EDGE('',*,*,#130,.T.);
#161=ORIENTED_EDGE('',*,*,#131,.F.);
#162=ORIENTED_EDGE('',*,*,#132,.F.);
#163=ORIENTED_EDGE('',*,*,#127,.F.);
#164=ORIENTED_EDGE('',*,*,#133,.T.);
#165=ORIENTED_EDGE('',*,*,#134,.F.);
#166=ORIENTED_EDGE('',*,*,#135,.F.);
#167=ORIENTED_EDGE('',*,*,#134,.T.);
#168=ORIENTED_EDGE('',*,*,#136,.T.);
#169=ORIENTED_EDGE('',*,*,#131,.T.);
#170=ORIENTED_EDGE('',*,*,#137,.T.);
#171=ORIENTED_EDGE('',*,*,#138,.F.);
#172=ORIENTED_EDGE('',*,*,#139,.T.);
#173=ORIENTED_EDGE('',*,*,#129,.T.);
#174=ORIENTED_EDGE('',*,*,#140,.T.);
#175=ORIENTED_EDGE('',*,*,#141,.F.);
#176=ORIENTED_EDGE('',*,*,#142,.T.);
#177=ORIENTED_EDGE('',*,*,#143,.F.);
#178=ORIENTED_EDGE('',*,*,#142,.F.);
#179=ORIENTED_EDGE('',*,*,#144,.F.);
#180=ORIENTED_EDGE('',*,*,#145,.T.);
#181=ORIENTED_EDGE('',*,*,#146,.F.);
#182=ORIENTED_EDGE('',*,*,#145,.F.);
#183=ORIENTED_EDGE('',*,*,#147,.T.);
#184=ORIENTED_EDGE('',*,*,#148,.T.);
#185=ORIENTED_EDGE('',*,*,#149,.F.);
#186=ORIENTED_EDGE('',*,*,#150,.F.);
#187=ORIENTED_EDGE('',*,*,#151,.T.);
#188=ORIENTED_EDGE('',*,*,#150,.T.);
#189=ORIENTED_EDGE('',*,*,#152,.F.);
#190=ORIENTED_EDGE('',*,*,#140,.F.);
#191=ORIENTED_EDGE('',*,*,#132,.T.);
#192=ORIENTED_EDGE('',*,*,#136,.F.);
#193=ORIENTED_EDGE('',*,*,#133,.F.);
#194=ORIENTED_EDGE('',*,*,#126,.F.);
#195=ORIENTED_EDGE('',*,*,#153,.T.);
#196=ORIENTED_EDGE('',*,*,#128,.F.);
#197=ORIENTED_EDGE('',*,*,#135,.T.);
#198=ORIENTED_EDGE('',*,*,#137,.F.);
#199=ORIENTED_EDGE('',*,*,#130,.F.);
#200=ORIENTED_EDGE('',*,*,#139,.F.);
#201=ORIENTED_EDGE('',*,*,#154,.F.);
#202=ORIENTED_EDGE('',*,*,#148,.F.);
#203=ORIENTED_EDGE('',*,*,#154,.T.);
#204=ORIENTED_EDGE('',*,*,#138,.T.);
#205=ORIENTED_EDGE('',*,*,#152,.T.);
#206=ORIENTED_EDGE('',*,*,#149,.T.);
#207=ORIENTED_EDGE('',*,*,#141,.T.);
#208=ORIENTED_EDGE('',*,*,#144,.T.);
#209=ORIENTED_EDGE('',*,*,#153,.F.);
#210=ORIENTED_EDGE('',*,*,#147,.F.);
#211=ORIENTED_EDGE('',*,*,#151,.F.);
#212=ORIENTED_EDGE('',*,*,#125,.F.);
#213=ORIENTED_EDGE('',*,*,#143,.T.);
#214=ORIENTED_EDGE('',*,*,#146,.T.);
#215=PLANE('',#251);
#216=PLANE('',#252);
#217=PLANE('',#253);
#218=PLANE('',#254);
#219=PLANE('',#255);
#220=PLANE('',#262);
#221=PLANE('',#263);
#222=PLANE('',#264);
#223=PLANE('',#265);
#224=PLANE('',#266);
#225=ADVANCED_FACE('',(#25),#215,.F.);
#226=ADVANCED_FACE('',(#26),#216,.T.);
#227=ADVANCED_FACE('',(#27),#217,.T.);
#228=ADVANCED_FACE('',(#28),#218,.T.);
#229=ADVANCED_FACE('',(#29),#219,.F.);
#230=ADVANCED_FACE('',(#30),#23,.F.);
#231=ADVANCED_FACE('',(#31),#24,.F.);
#232=ADVANCED_FACE('',(#32),#220,.T.);
#233=ADVANCED_FACE('',(#33),#221,.T.);
#234=ADVANCED_FACE('',(#34),#222,.T.);
#235=ADVANCED_FACE('',(#35,#15,#16),#223,.T.);
#236=ADVANCED_FACE('',(#36,#17,#18),#224,.F.);
#237=CLOSED_SHELL('',(#225,#226,#227,#228,#229,#230,#231,#232,#233,#234,
#235,#236));
#238=DERIVED_UNIT_ELEMENT(#240,1.);
#239=DERIVED_UNIT_ELEMENT(#395,-3.);
#240=(
MASS_UNIT()
NAMED_UNIT(*)
SI_UNIT(.KILO.,.GRAM.)
);
#241=DERIVED_UNIT((#238,#239));
#242=MEASURE_REPRESENTATION_ITEM('density measure',
POSITIVE_RATIO_MEASURE(7850.),#241);
#243=PROPERTY_DEFINITION_REPRESENTATION(#248,#245);
#244=PROPERTY_DEFINITION_REPRESENTATION(#249,#246);
#245=REPRESENTATION('material name',(#247),#392);
#246=REPRESENTATION('density',(#242),#392);
#247=DESCRIPTIVE_REPRESENTATION_ITEM('Steel','Steel');
#248=PROPERTY_DEFINITION('material property','material name',#402);
#249=PROPERTY_DEFINITION('material property','density of part',#402);
#250=AXIS2_PLACEMENT_3D('',#327,#267,#268);
#251=AXIS2_PLACEMENT_3D('',#328,#269,#270);
#252=AXIS2_PLACEMENT_3D('',#337,#275,#276);
#253=AXIS2_PLACEMENT_3D('',#346,#281,#282);
#254=AXIS2_PLACEMENT_3D('',#352,#286,#287);
#255=AXIS2_PLACEMENT_3D('',#355,#290,#291);
#256=AXIS2_PLACEMENT_3D('',#361,#295,#296);
#257=AXIS2_PLACEMENT_3D('',#363,#297,#298);
#258=AXIS2_PLACEMENT_3D('',#366,#300,#301);
#259=AXIS2_PLACEMENT_3D('',#367,#302,#303);
#260=AXIS2_PLACEMENT_3D('',#369,#304,#305);
#261=AXIS2_PLACEMENT_3D('',#372,#307,#308);
#262=AXIS2_PLACEMENT_3D('',#373,#309,#310);
#263=AXIS2_PLACEMENT_3D('',#382,#315,#316);
#264=AXIS2_PLACEMENT_3D('',#385,#319,#320);
#265=AXIS2_PLACEMENT_3D('',#388,#323,#324);
#266=AXIS2_PLACEMENT_3D('',#389,#325,#326);
#267=DIRECTION('axis',(0.,0.,1.));
#268=DIRECTION('refdir',(1.,0.,0.));
#269=DIRECTION('center_axis',(0.,-1.,0.));
#270=DIRECTION('ref_axis',(1.,0.,0.));
#271=DIRECTION('',(1.,0.,0.));
#272=DIRECTION('',(0.,0.,-1.));
#273=DIRECTION('',(-1.,0.,0.));
#274=DIRECTION('',(0.,0.,1.));
#275=DIRECTION('center_axis',(0.,0.,1.));
#276=DIRECTION('ref_axis',(-1.,0.,0.));
#277=DIRECTION('',(1.,0.,0.));
#278=DIRECTION('',(0.,-1.,0.));
#279=DIRECTION('',(-1.,0.,0.));
#280=DIRECTION('',(0.,-1.,0.));
#281=DIRECTION('center_axis',(0.,0.,-1.));
#282=DIRECTION('ref_axis',(1.,0.,0.));
#283=DIRECTION('',(0.,-1.,0.));
#284=DIRECTION('',(1.,0.,0.));
#285=DIRECTION('',(0.,-1.,0.));
#286=DIRECTION('center_axis',(0.,-1.,0.));
#287=DIRECTION('ref_axis',(0.,0.,-1.));
#288=DIRECTION('',(0.,0.,1.));
#289=DIRECTION('',(0.,0.,-1.));
#290=DIRECTION('center_axis',(0.,-1.,0.));
#291=DIRECTION('ref_axis',(1.,0.,0.));
#292=DIRECTION('',(1.,0.,0.));
#293=DIRECTION('',(0.,0.,1.));
#294=DIRECTION('',(0.,0.,-1.));
#295=DIRECTION('center_axis',(0.,0.,-1.));
#296=DIRECTION('ref_axis',(-1.,0.,0.));
#297=DIRECTION('center_axis',(0.,0.,-1.));
#298=DIRECTION('ref_axis',(-1.,0.,0.));
#299=DIRECTION('',(0.,0.,-1.));
#300=DIRECTION('center_axis',(0.,0.,1.));
#301=DIRECTION('ref_axis',(-1.,0.,0.));
#302=DIRECTION('center_axis',(0.,0.,-1.));
#303=DIRECTION('ref_axis',(-1.,0.,0.));
#304=DIRECTION('center_axis',(0.,0.,-1.));
#305=DIRECTION('ref_axis',(-1.,0.,0.));
#306=DIRECTION('',(0.,0.,-1.));
#307=DIRECTION('center_axis',(0.,0.,1.));
#308=DIRECTION('ref_axis',(-1.,0.,0.));
#309=DIRECTION('center_axis',(0.,1.,0.));
#310=DIRECTION('ref_axis',(-1.,0.,0.));
#311=DIRECTION('',(1.,0.,0.));
#312=DIRECTION('',(0.,0.,1.));
#313=DIRECTION('',(1.,0.,0.));
#314=DIRECTION('',(0.,0.,-1.));
#315=DIRECTION('center_axis',(1.,0.,0.));
#316=DIRECTION('ref_axis',(0.,1.,0.));
#317=DIRECTION('',(0.,1.,0.));
#318=DIRECTION('',(0.,1.,0.));
#319=DIRECTION('center_axis',(-1.,0.,0.));
#320=DIRECTION('ref_axis',(0.,-1.,0.));
#321=DIRECTION('',(0.,-1.,0.));
#322=DIRECTION('',(0.,-1.,0.));
#323=DIRECTION('center_axis',(0.,0.,1.));
#324=DIRECTION('ref_axis',(1.,0.,0.));
#325=DIRECTION('center_axis',(0.,0.,1.));
#326=DIRECTION('ref_axis',(1.,0.,0.));
#327=CARTESIAN_POINT('',(0.,0.,0.));
#328=CARTESIAN_POINT('Origin',(0.,0.,2.5000000372529));
#329=CARTESIAN_POINT('',(-5.,0.,0.));
#330=CARTESIAN_POINT('',(5.,0.,0.));
#331=CARTESIAN_POINT('',(-5.,0.,0.));
#332=CARTESIAN_POINT('',(5.00000007450581,0.,-40.0000005960464));
#333=CARTESIAN_POINT('',(5.00000007450581,0.,45.0000006705523));
#334=CARTESIAN_POINT('',(-5.00000007450581,0.,-40.0000005960464));
#335=CARTESIAN_POINT('',(5.00000007450581,0.,-40.0000005960464));
#336=CARTESIAN_POINT('',(-5.00000007450581,0.,-40.0000005960464));
#337=CARTESIAN_POINT('Origin',(5.00000007450581,0.,45.0000006705523));
#338=CARTESIAN_POINT('',(-5.00000007450581,0.,45.0000006705523));
#339=CARTESIAN_POINT('',(5.00000007450581,0.,45.0000006705523));
#340=CARTESIAN_POINT('',(-5.00000007450581,0.,45.0000006705523));
#341=CARTESIAN_POINT('',(-5.00000007450581,-5.,45.0000006705523));
#342=CARTESIAN_POINT('',(-5.00000007450581,0.,45.0000006705523));
#343=CARTESIAN_POINT('',(5.00000007450581,-5.,45.0000006705523));
#344=CARTESIAN_POINT('',(-5.00000007450581,-5.,45.0000006705523));
#345=CARTESIAN_POINT('',(5.00000007450581,0.,45.0000006705523));
#346=CARTESIAN_POINT('Origin',(-5.00000007450581,0.,-40.0000005960464));
#347=CARTESIAN_POINT('',(5.00000007450581,-5.,-40.0000005960464));
#348=CARTESIAN_POINT('',(5.00000007450581,0.,-40.0000005960464));
#349=CARTESIAN_POINT('',(-5.00000007450581,-5.,-40.0000005960464));
#350=CARTESIAN_POINT('',(5.00000007450581,-5.,-40.0000005960464));
#351=CARTESIAN_POINT('',(-5.00000007450581,0.,-40.0000005960464));
#352=CARTESIAN_POINT('Origin',(0.,-5.,2.5000000372529));
#353=CARTESIAN_POINT('',(5.00000007450581,-5.,45.0000006705523));
#354=CARTESIAN_POINT('',(-5.00000007450581,-5.,-40.0000005960464));
#355=CARTESIAN_POINT('Origin',(0.,0.,2.5000000372529));
#356=CARTESIAN_POINT('',(-5.,0.,5.));
#357=CARTESIAN_POINT('',(5.,0.,5.));
#358=CARTESIAN_POINT('',(-5.,0.,5.));
#359=CARTESIAN_POINT('',(-5.00000007450581,0.,-40.0000005960464));
#360=CARTESIAN_POINT('',(5.00000007450581,0.,45.0000006705523));
#361=CARTESIAN_POINT('Origin',(0.,93.,5.));
#362=CARTESIAN_POINT('',(0.999999999999995,93.,5.));
#363=CARTESIAN_POINT('Origin',(0.,93.,5.));
#364=CARTESIAN_POINT('',(0.999999999999995,93.,0.));
#365=CARTESIAN_POINT('',(0.999999999999995,93.,5.));
#366=CARTESIAN_POINT('Origin',(0.,93.,0.));
#367=CARTESIAN_POINT('Origin',(-1.,58.,5.));
#368=CARTESIAN_POINT('',(1.66533453693773E-15,58.,5.));
#369=CARTESIAN_POINT('Origin',(-1.,58.,5.));
#370=CARTESIAN_POINT('',(1.66533453693773E-15,58.,0.));
#371=CARTESIAN_POINT('',(1.66533453693773E-15,58.,5.));
#372=CARTESIAN_POINT('Origin',(-1.,58.,0.));
#373=CARTESIAN_POINT('Origin',(5.,96.,0.));
#374=CARTESIAN_POINT('',(5.,96.,0.));
#375=CARTESIAN_POINT('',(-5.,96.,0.));
#376=CARTESIAN_POINT('',(2.5,96.,0.));
#377=CARTESIAN_POINT('',(-5.,96.,5.));
#378=CARTESIAN_POINT('',(-5.,96.,0.));
#379=CARTESIAN_POINT('',(5.,96.,5.));
#380=CARTESIAN_POINT('',(2.5,96.,5.));
#381=CARTESIAN_POINT('',(5.,96.,0.));
#382=CARTESIAN_POINT('Origin',(5.,0.,0.));
#383=CARTESIAN_POINT('',(5.,0.,0.));
#384=CARTESIAN_POINT('',(5.,0.,5.));
#385=CARTESIAN_POINT('Origin',(-5.,95.,0.));
#386=CARTESIAN_POINT('',(-5.,95.,0.));
#387=CARTESIAN_POINT('',(-5.,95.,5.));
#388=CARTESIAN_POINT('Origin',(0.,47.5,5.));
#389=CARTESIAN_POINT('Origin',(0.,47.5,0.));
#390=UNCERTAINTY_MEASURE_WITH_UNIT(LENGTH_MEASURE(0.01),#394,
'DISTANCE_ACCURACY_VALUE',
'Maximum model space distance between geometric entities at asserted c
onnectivities');
#391=UNCERTAINTY_MEASURE_WITH_UNIT(LENGTH_MEASURE(0.01),#394,
'DISTANCE_ACCURACY_VALUE',
'Maximum model space distance between geometric entities at asserted c
onnectivities');
#392=(
GEOMETRIC_REPRESENTATION_CONTEXT(3)
GLOBAL_UNCERTAINTY_ASSIGNED_CONTEXT((#390))
GLOBAL_UNIT_ASSIGNED_CONTEXT((#394,#396,#397))
REPRESENTATION_CONTEXT('','3D')
);
#393=(
GEOMETRIC_REPRESENTATION_CONTEXT(3)
GLOBAL_UNCERTAINTY_ASSIGNED_CONTEXT((#391))
GLOBAL_UNIT_ASSIGNED_CONTEXT((#394,#396,#397))
REPRESENTATION_CONTEXT('','3D')
);
#394=(
LENGTH_UNIT()
NAMED_UNIT(*)
SI_UNIT(.MILLI.,.METRE.)
);
#395=(
LENGTH_UNIT()
NAMED_UNIT(*)
SI_UNIT($,.METRE.)
);
#396=(
NAMED_UNIT(*)
PLANE_ANGLE_UNIT()
SI_UNIT($,.RADIAN.)
);
#397=(
NAMED_UNIT(*)
SI_UNIT($,.STERADIAN.)
SOLID_ANGLE_UNIT()
);
#398=SHAPE_DEFINITION_REPRESENTATION(#399,#400);
#399=PRODUCT_DEFINITION_SHAPE('',$,#402);
#400=SHAPE_REPRESENTATION('',(#250),#392);
#401=PRODUCT_DEFINITION_CONTEXT('part definition',#406,'design');
#402=PRODUCT_DEFINITION('mapa cr noha','mapa cr noha',#403,#401);
#403=PRODUCT_DEFINITION_FORMATION('',$,#408);
#404=PRODUCT_RELATED_PRODUCT_CATEGORY('mapa cr noha','mapa cr noha',(#408));
#405=APPLICATION_PROTOCOL_DEFINITION('international standard',
'automotive_design',2009,#406);
#406=APPLICATION_CONTEXT(
'Core Data for Automotive Mechanical Design Process');
#407=PRODUCT_CONTEXT('part definition',#406,'mechanical');
#408=PRODUCT('mapa cr noha','mapa cr noha',$,(#407));
#409=PRESENTATION_STYLE_ASSIGNMENT((#410));
#410=SURFACE_STYLE_USAGE(.BOTH.,#411);
#411=SURFACE_SIDE_STYLE('',(#412));
#412=SURFACE_STYLE_FILL_AREA(#413);
#413=FILL_AREA_STYLE('Steel - Satin',(#414));
#414=FILL_AREA_STYLE_COLOUR('Steel - Satin',#415);
#415=COLOUR_RGB('Steel - Satin',0.627450980392157,0.627450980392157,0.627450980392157);
ENDSEC;
END-ISO-10303-21;
